PathFileType	4	(X/Y/Z)	C:/Users/opensim2020/Desktop/walking_exp_matlab/subject01_walking04_straight_03.trc	
DataRate	CameraRate	NumFrames	NumMarkers	Units	OrigDataRate	OrigDataStartFrame	OrigNumFrames	
100.00	100.00	8	43	mm	100.00	2181	211	
Frame#	Time	LFHD			RFHD			LBHD			RBHD			C7			T10			CLAV			STRN			RBAK			LSHO			LUPA			LELB			LFRM			LWRA			LWRB			LFIN			RSHO			RUPA			RELB			RFRM			RWRA			RWRB			RFIN			LASI			RASI			LPSI			RPSI			LTHI			LKNE			LTIB			LANK			LHEE			LTOE			RTHI			RKNE			RTIB			RANK			RHEE			RTOE			*39			*40			*41			*42			
		X1	Y1	Z1	X2	Y2	Z2	X3	Y3	Z3	X4	Y4	Z4	X5	Y5	Z5	X6	Y6	Z6	X7	Y7	Z7	X8	Y8	Z8	X9	Y9	Z9	X10	Y10	Z10	X11	Y11	Z11	X12	Y12	Z12	X13	Y13	Z13	X14	Y14	Z14	X15	Y15	Z15	X16	Y16	Z16	X17	Y17	Z17	X18	Y18	Z18	X19	Y19	Z19	X20	Y20	Z20	X21	Y21	Z21	X22	Y22	Z22	X23	Y23	Z23	X24	Y24	Z24	X25	Y25	Z25	X26	Y26	Z26	X27	Y27	Z27	X28	Y28	Z28	X29	Y29	Z29	X30	Y30	Z30	X31	Y31	Z31	X32	Y32	Z32	X33	Y33	Z33	X34	Y34	Z34	X35	Y35	Z35	X36	Y36	Z36	X37	Y37	Z37	X38	Y38	Z38	X39	Y39	Z39	X40	Y40	Z40	X41	Y41	Z41	X42	Y42	Z42	X43	Y43	Z43	

80	0.790	-1106.53247	-322.18616	1654.10815	-993.62701	-304.71777	1660.78149	-1094.06787	-437.98016	1606.86414	-973.85986	-422.47861	1612.78662	-1051.87231	-475.88818	1414.68188	-1037.10901	-505.70490	1120.90564	-1050.02368	-330.69397	1348.38342	-1048.77490	-285.81909	1195.76331	-966.68671	-527.30017	1221.73218	-1212.93652	-392.69800	1370.75891	-1289.53931	-440.86139	1185.12061	-1282.84473	-474.93506	1041.53516	-1306.05933	-464.73163	928.87659	-1285.09888	-419.93832	796.21228	-1311.47131	-473.57809	806.71265	-1314.41785	-449.77426	724.12842	-898.40521	-393.81882	1378.18140	-785.33124	-429.08887	1181.06250	-770.38641	-411.07648	1055.21851	-746.23810	-332.87598	958.21759	-779.12286	-211.98386	890.24402	-734.73602	-245.77657	873.01099	-742.49335	-177.33382	822.56781	-1126.57385	-316.65326	917.20337	-909.53705	-341.82330	916.55011	-1100.46484	-508.37491	926.69122	-957.34424	-524.25122	935.55707	-1181.98645	-270.32315	601.29785	-1161.54578	-246.80084	472.20151	-1165.66663	-252.22015	283.37830	-1114.40845	-215.17001	67.49807	-1057.89417	-252.70840	36.48346	-1118.48267	-67.82974	49.41517	-869.68610	-459.33432	592.13611	-896.14966	-487.99414	432.55884	-900.64429	-607.64935	300.65070	-956.29529	-710.87061	119.63662	-1010.17670	-766.36090	106.72732	-964.16797	-595.26917	32.08292	-1016.04163	-318.36166	1694.04517	-3102.02148	1973.03784	1023.41541	-3140.66187	2012.52954	1022.01685			 
81	0.800	-1108.11670	-312.50818	1655.08960	-994.99902	-295.33170	1661.73267	-1096.05750	-428.34424	1607.81116	-975.82642	-413.23041	1613.56531	-1053.94092	-465.85974	1415.57190	-1038.17761	-495.13876	1121.51318	-1051.61877	-320.80624	1349.42908	-1050.09802	-275.28104	1197.08643	-968.83374	-517.31549	1222.21045	-1214.79675	-382.58826	1371.06116	-1291.18005	-429.08688	1184.83716	-1284.28406	-462.12350	1040.99438	-1307.31384	-450.85287	928.29889	-1285.64929	-404.99167	796.33008	-1312.50085	-458.51761	806.04517	-1315.28198	-433.74689	723.88251	-899.97015	-384.50229	1379.44873	-787.43250	-420.89725	1182.00049	-772.41388	-403.00027	1056.32739	-747.56396	-326.31204	958.29688	-779.61749	-206.14365	888.82501	-735.46857	-240.49069	872.03882	-742.56567	-172.58870	820.98749	-1126.90479	-305.28806	918.23877	-910.17999	-330.46069	917.27856	-1100.69897	-497.24649	928.07733	-957.36121	-513.17078	936.07294	-1183.86011	-260.36298	602.85651	-1161.66064	-236.70804	474.01114	-1167.80847	-242.67036	284.79239	-1114.69128	-213.09123	67.65218	-1058.63745	-251.73178	37.08819	-1118.07507	-66.04105	45.92950	-869.67572	-445.89566	592.19537	-895.24292	-473.97989	432.40579	-900.12781	-597.87610	304.27744	-955.12695	-705.09961	125.81162	-1009.27869	-760.75024	115.66625	-963.74170	-594.60803	32.21085	-1017.49347	-308.92032	1695.00037	-3101.95142	1973.07568	1023.75836	-3140.72217	2012.59619	1021.98627			 
82	0.810	-1109.77295	-302.79697	1656.14221	-996.65015	-285.96710	1662.71936	-1098.06482	-418.57874	1608.72217	-977.84290	-403.97702	1614.47595	-1055.90784	-456.15482	1416.52161	-1039.16870	-484.70374	1122.23865	-1053.23792	-310.96454	1350.63745	-1051.37927	-264.80093	1198.55933	-970.79041	-507.27472	1222.90735	-1216.47998	-372.55383	1371.56287	-1292.74524	-417.21881	1184.81213	-1285.85266	-449.10748	1040.65613	-1308.62158	-436.59360	928.07019	-1286.59314	-389.41675	796.62305	-1313.63831	-442.95236	805.70239	-1316.22852	-417.18051	723.81317	-901.71570	-374.98074	1380.69409	-789.57196	-412.89923	1183.17761	-774.45300	-395.54813	1057.46448	-748.96344	-320.01645	958.66315	-780.41229	-201.01263	887.31952	-736.24701	-235.85939	871.12054	-742.57556	-168.44658	819.30798	-1127.39209	-294.07761	919.65607	-911.02032	-319.20105	918.23840	-1100.79126	-486.31708	929.57544	-957.30872	-501.67990	936.46069	-1185.13574	-250.80524	604.60535	-1161.55103	-226.92009	475.29196	-1170.05383	-234.16661	285.42194	-1114.52075	-211.73022	67.83383	-1058.63782	-250.88699	37.57450	-1118.67725	-64.93581	43.62566	-869.55646	-431.42380	592.21979	-893.44330	-458.74426	432.37714	-899.37823	-586.31940	307.68082	-954.26257	-698.73590	132.56303	-1008.84583	-753.33655	124.76616	-963.67883	-593.62439	32.16051	-1019.11633	-299.38538	1695.99243	-3101.88989	1973.16846	1023.70355	-3140.84668	2012.51636	1021.91968			 
83	0.820	-1111.46399	-293.07568	1657.17188	-998.33575	-276.82413	1663.67529	-1100.13281	-408.84067	1609.71594	-979.91833	-394.65997	1615.44495	-1057.85864	-446.62036	1417.26099	-1040.18933	-474.32272	1123.07190	-1055.03235	-301.07428	1352.12183	-1052.54321	-254.25632	1200.13733	-972.51343	-497.47781	1223.79346	-1218.09753	-362.66370	1372.26172	-1294.29810	-405.18500	1185.04871	-1287.31738	-435.99283	1040.46167	-1309.87976	-421.99054	928.05469	-1288.00366	-373.11606	797.19104	-1314.85229	-426.85617	805.68341	-1317.19519	-400.13828	724.01953	-903.44116	-365.56381	1382.08264	-791.71613	-404.91913	1184.51624	-776.46338	-387.97064	1058.92883	-750.56873	-314.20868	959.17090	-780.63525	-195.78763	886.06213	-736.98352	-231.18568	870.41217	-742.56891	-164.67078	817.53430	-1128.12183	-283.17929	921.37555	-912.14355	-307.98727	919.40082	-1100.80518	-475.61890	931.03296	-957.22766	-489.87750	936.70850	-1185.39453	-241.30745	605.44763	-1161.32568	-217.63948	475.75876	-1171.54187	-227.19559	285.30783	-1114.12061	-210.52057	67.90623	-1058.67566	-250.22810	37.93470	-1118.54419	-63.64371	41.91488	-868.92932	-416.23166	592.29736	-891.27979	-442.39120	432.22998	-898.56689	-573.76788	311.36053	-953.30933	-690.97101	139.69699	-1008.92950	-744.79285	135.22769	-963.59052	-592.33887	32.28047	-1020.77936	-289.96481	1697.08789	-3101.95947	1973.11536	1023.70715	-3140.67505	2012.47388	1021.95154			 
84	0.830	-1113.13501	-283.28363	1658.27991	-999.94604	-267.12262	1665.01282	-1102.26196	-399.18564	1610.86743	-981.87604	-385.25659	1616.69971	-1059.67163	-437.02625	1417.98901	-1041.20203	-463.81885	1123.94604	-1056.48242	-291.26721	1353.57019	-1053.74597	-243.71420	1201.78882	-974.11292	-486.98816	1224.61145	-1219.61353	-352.76849	1373.17175	-1295.71680	-393.14044	1185.56335	-1288.81995	-422.55182	1040.68420	-1311.22595	-407.05344	928.39215	-1288.62097	-356.81418	798.25134	-1316.14258	-410.29163	805.94312	-1318.21387	-382.47388	724.64172	-905.07117	-356.17581	1383.45398	-793.79071	-396.86786	1185.96216	-778.44647	-380.46078	1060.60254	-751.86365	-308.33685	959.97186	-781.20764	-191.11917	884.60199	-737.78180	-227.05316	869.56714	-742.64020	-161.87210	815.58826	-1129.19800	-272.53781	923.09375	-913.44238	-296.91641	920.75690	-1100.84119	-465.03067	932.49628	-957.21478	-479.35944	938.08636	-1184.96326	-231.27396	606.52893	-1161.07385	-209.06688	475.47012	-1172.05347	-221.55078	284.74689	-1113.82935	-209.03064	67.85799	-1058.91748	-249.89635	38.27597	-1117.20605	-62.31879	40.55293	-868.05084	-400.51050	592.39935	-888.67877	-424.99765	432.08606	-897.91986	-559.71350	314.79938	-952.59509	-681.96924	147.21362	-1009.40228	-733.68445	145.87785	-964.10144	-591.24841	32.18670	-1022.52106	-280.56543	1698.25061	-3101.97583	1973.19617	1023.31976	-3140.56421	2012.61792	1021.96497			 
85	0.840	-1114.90930	-273.48285	1659.36316	-1001.72632	-257.79382	1666.21277	-1104.14172	-389.33560	1612.02490	-983.84241	-375.78284	1618.04639	-1061.43481	-427.52127	1418.86841	-1042.18884	-453.52353	1124.97510	-1057.67175	-281.43857	1355.03772	-1054.80090	-233.31783	1203.36951	-975.46301	-476.91364	1225.65503	-1221.13806	-342.87070	1374.21777	-1297.04529	-381.13022	1186.28210	-1290.40784	-408.94971	1041.01880	-1312.62524	-391.76309	928.94482	-1289.99304	-339.53894	799.92511	-1317.39526	-393.36694	806.39807	-1319.29895	-364.26035	725.44556	-906.76141	-346.68671	1384.98242	-795.69568	-388.73557	1187.60425	-780.42950	-373.06122	1062.31934	-753.24408	-302.76987	960.64722	-782.09058	-186.96938	883.01294	-738.47229	-223.34927	868.81323	-742.56036	-159.02788	813.78436	-1130.50769	-262.24139	924.70911	-915.02484	-286.06171	922.19397	-1101.06934	-454.60965	933.98779	-957.26709	-468.08911	939.06982	-1184.54968	-221.31378	606.87775	-1160.98755	-201.35527	474.83081	-1171.80750	-216.73914	284.35104	-1113.40454	-207.89774	67.94800	-1058.84399	-249.54384	38.44017	-1116.04065	-61.18850	39.59920	-866.89050	-384.14478	592.41840	-885.75671	-406.92130	431.97723	-896.87964	-545.03693	318.51578	-951.65985	-671.13702	154.79349	-1009.99078	-720.88464	156.49818	-964.47888	-589.92523	32.19852	-1024.51294	-271.06647	1699.60693	-3101.83105	1973.20215	1023.28540	-3140.64185	2012.60962	1021.97888			 
86	0.850	-1116.61340	-263.74936	1660.33154	-1003.41144	-248.12408	1667.50989	-1106.08887	-379.59140	1613.19739	-985.70538	-366.34424	1619.45862	-1063.08667	-417.69662	1419.80688	-1043.32788	-443.28497	1126.00684	-1059.03589	-271.61172	1356.48914	-1055.83093	-223.03334	1204.92224	-976.52502	-466.85583	1226.72778	-1222.51721	-333.01678	1375.33606	-1298.36108	-369.18533	1187.15564	-1292.01587	-395.20065	1041.50281	-1314.02356	-376.25851	929.64996	-1291.13904	-322.27441	801.15729	-1318.67700	-375.98254	807.11285	-1320.34058	-345.70932	726.61499	-908.25085	-337.12408	1386.65674	-797.35437	-380.64169	1189.31238	-782.37256	-365.78333	1064.04492	-754.74054	-297.47916	961.24420	-782.59918	-182.80550	881.52405	-739.22034	-219.64276	868.02435	-742.82709	-156.29259	811.73370	-1132.09460	-252.14824	926.24323	-916.65155	-275.64624	923.72443	-1101.54822	-444.35291	935.34308	-957.66370	-457.33051	940.13696	-1184.29614	-212.10550	606.74915	-1161.00781	-194.41376	474.23587	-1171.27905	-212.34285	284.18472	-1112.77087	-207.18391	67.88177	-1058.68982	-249.36414	38.50511	-1115.63757	-60.21869	38.73630	-865.52588	-367.37991	592.24188	-883.07336	-388.29361	432.10559	-895.55029	-529.44366	322.39136	-950.62665	-659.58472	161.88669	-1010.10754	-706.49646	166.96811	-965.18225	-588.77460	32.25430	-1026.22974	-261.37360	1700.66492	-3101.85522	1973.16272	1023.26392	-3140.55884	2012.55981	1021.96930			 
87	0.860	-1118.32227	-253.96860	1661.18127	-1005.07568	-238.67041	1668.53662	-1107.92236	-369.94949	1614.21643	-987.60736	-356.89508	1620.72559	-1064.62427	-407.89105	1420.59558	-1044.49255	-433.15521	1126.95325	-1060.28088	-261.71591	1357.76379	-1056.84583	-212.79938	1206.29504	-977.36304	-456.91736	1227.70679	-1223.76489	-323.05743	1376.47278	-1299.65686	-357.26297	1188.11804	-1293.63989	-381.51874	1042.03503	-1315.49536	-360.59128	930.54260	-1291.55359	-304.99924	802.70648	-1319.98169	-358.22281	807.99261	-1321.46570	-326.57147	727.96002	-909.64288	-327.88373	1387.84912	-798.78650	-372.42697	1190.96997	-784.32532	-358.66028	1065.71484	-756.01544	-292.17703	961.88568	-783.10870	-178.91173	879.84296	-739.89587	-216.33981	867.18555	-743.20721	-154.08365	809.46741	-1133.72302	-242.42676	927.58557	-918.40179	-265.51831	924.90393	-1102.17993	-434.31064	936.47571	-958.13434	-447.20026	941.52350	-1184.66345	-203.74327	606.58826	-1161.31274	-188.21484	473.91101	-1170.78638	-208.43315	284.00211	-1112.37451	-206.54457	67.84683	-1058.54724	-249.23566	38.58809	-1115.46912	-59.52969	38.16999	-864.10486	-350.44739	592.01605	-881.18951	-369.19321	432.01083	-894.09540	-512.80328	326.15070	-948.88403	-645.96033	168.54466	-1008.87805	-691.44440	177.07803	-965.88141	-587.16608	32.85258	-1028.05981	-251.64255	1701.78821	-3102.08618	1973.00806	1023.86090	-3140.60767	2012.53015	1021.94672			 
